<?xml version="1.0" encoding="UTF-8"?>
<svg id="D" xmlns="http://www.w3.org/2000/svg" viewBox="0 0 667 667">
  <defs>
    <style>
      .cls-1 {
        fill: #7936ba;
      }

      .cls-2 {
        fill: #51217f;
      }

      .cls-3 {
        fill: #d1d1d1;
      }
    </style>
  </defs>
  <g id="Alpha">
    <path class="cls-1" d="M597.91,0H69.09c-9.07,0-18.06,1.78-26.44,5.25-8.38,3.47-16,8.56-22.42,14.98-6.42,6.42-11.51,14.03-14.98,22.42C1.78,51.03,0,60.02,0,69.09v528.82c0,9.07,1.78,18.06,5.25,26.44,3.47,8.38,8.56,16,14.98,22.42,6.42,6.42,14.03,11.51,22.42,14.98,8.38,3.47,17.37,5.26,26.44,5.26h528.82c9.07,0,18.06-1.78,26.44-5.26,8.38-3.47,16-8.56,22.42-14.98,6.42-6.42,11.51-14.03,14.98-22.42,3.47-8.38,5.26-17.37,5.26-26.44V69.09c0-9.07-1.78-18.06-5.26-26.44-3.47-8.38-8.56-16-14.98-22.42-6.42-6.42-14.03-11.51-22.42-14.98C615.97,1.78,606.98,0,597.91,0ZM587.86,651H80.14c-16.75,0-32.81-6.65-44.65-18.49-11.84-11.84-18.49-27.9-18.49-44.65V80.14c0-16.75,6.65-32.81,18.49-44.65,11.84-11.84,27.9-18.49,44.65-18.49h507.72c16.75,0,32.81,6.65,44.65,18.49,11.84,11.84,18.49,27.9,18.49,44.65v507.72c0,16.75-6.65,32.81-18.49,44.65-11.84,11.84-27.9,18.49-44.65,18.49Z"/>
    <path class="cls-2" d="M588.57,15H78.43c-16.82,0-32.96,6.68-44.85,18.58-11.9,11.9-18.58,28.03-18.58,44.85v510.13c0,16.82,6.68,32.96,18.58,44.85,11.9,11.9,28.03,18.58,44.85,18.58h510.13c16.82,0,32.96-6.68,44.85-18.58,11.9-11.9,18.58-28.03,18.58-44.85V78.43c0-16.82-6.68-32.96-18.58-44.85-11.9-11.9-28.03-18.58-44.85-18.58Z"/>
    <path class="cls-1" d="M85.2,140.95c2.77-.44,4.81-2.82,4.8-5.63v-.05c0-8.01,1.87-15.91,5.43-23.08,3.57-7.17,8.74-13.42,15.12-18.27,6.38-4.84,13.8-8.14,21.66-9.65,6-1.15,12.14-1.22,18.15-.24,3.09.51,6.03-1.51,6.58-4.59l2.38-13.45c.55-3.1-1.54-6.06-4.65-6.59-10.31-1.74-20.9-1.37-31.1,1.13-12.06,2.95-23.22,8.78-32.54,16.99-9.32,8.21-16.51,18.54-20.96,30.13-3.69,9.6-5.41,19.83-5.07,30.07.11,3.39,3.21,5.91,6.56,5.38l13.63-2.15Z"/>
    <path class="cls-3" d="M370.62,167.71c-8.49-2.46-17.29-3.71-26.13-3.71h-87.08c-24.84.13-48.62,10.1-66.13,27.73-17.51,17.62-27.32,41.47-27.29,66.31l.25,149.3c.08,24.84,9.99,48.63,27.56,66.19,17.57,17.55,41.38,27.43,66.22,27.48h87.08c8.84,0,17.64-1.27,26.13-3.78,37.73-8.09,71.54-28.9,95.77-58.93,24.23-30.04,37.41-67.48,37.34-106.07-.07-38.59-13.39-75.99-37.74-105.93-24.34-29.94-58.23-50.62-95.99-58.57ZM348.82,415l-88.57.35c-.9.07-1.81-.04-2.67-.33-.86-.29-1.65-.74-2.33-1.34-.67-.6-1.21-1.32-1.6-2.13-.39-.81-.61-1.69-.65-2.59l-.25-143.45c.1-1.8.9-3.49,2.23-4.71,1.33-1.22,3.08-1.87,4.89-1.81h88.73c42.68,2.55,76.55,36.42,76.55,77.9s-33.52,75.37-76.33,78.1Z"/>
  </g>
</svg>